<?xml version="1.0" encoding="UTF-8"?>
<svg id="a" xmlns="http://www.w3.org/2000/svg" viewBox="0 0 1400 1400">
    <defs>
        <style>.h{stroke-width:0px;}</style>
    </defs>
    <path class="h"
          d="m1179.11,652.74c-17.49,56.32-43.41,108.4-83.56,155.04,11.51-4.34,45.96-45.42,65.5-76.73,17.79-28.51,28.04-59.98,35.42-92.58-.34,20.82-3.99,40.9-9.78,60.91-15.88,54.9-44.86,102.42-79.74,146.92-46.23,58.99-100.43,108.86-165.77,146.1-51.85,29.55-107.48,48.52-166.37,57.39-52.92,7.98-105.77,6.43-158.56-3-36.86-6.58-73.02-15.43-107.96-28.83-9.84-3.77-18.29,1.53-27.43,1.88-4.37.17-8.68,2-13.39.88,8.04-4.4,17.64-1.97,26.55-7.01-37.47-17.92-73.45-36.6-98.8-72.2,12.08-1.61,21.86,2.57,31.81,4.21,48.51,8.02,97.1,11.78,146.37,9.14,78.31-4.18,153.87-20.73,226.93-48.47,52.9-20.08,103.71-44.57,149.15-79.03,36.61-27.77,69.12-59.59,96.82-96.29,1.88-2.49,3.16-5.7,7.99-7.67-7.86,12.55-15.9,23.14-24.36,33.34-37.59,45.33-81.56,83.03-131.86,114-44.36,27.31-89.75,52.22-137.88,72.13-44.9,18.58-91.34,32.41-138.29,44.55-29.47,7.62-59.18,14.28-88.7,21.86,9.78.56,19.24-1.77,28.61-3.74,73.75-15.52,146.82-33.68,217.32-60.77,34.52-13.26,68.23-28.44,100.84-46.01,23.05-12.41,46.37-24.35,68.16-38.92,34.62-23.16,67.13-48.91,95.62-79.59-27.24,39.22-59.92,73.56-97.08,106.05,20.21-2.37,92.14-55.19,135.69-97.87,40.29-39.48,71.43-85.34,96.76-135.7Zm-152.97,227.87c-51.16,41.33-104.64,79.23-162.85,110.17,61.49-26.09,115.65-63.01,162.85-110.17Z"/>
    <path class="h"
          d="m1327.5,398.11c1.48,6.34-3.35,9.04-6.45,12.47-44.75,49.5-96.66,90.42-152.34,126.78-18.15,11.85-36.72,23.07-54.94,34.82-15.41,9.94-32.12,15.65-50.42,16.88-23.13,1.55-46.25,3.48-69.4,4.72-38.5,2.07-77.03,3.71-115.55,5.55-3.35.16-6.72.32-9.89,2.18-.07,2.36,2.01,1.7,2.98,1.69,37.5-.4,74.74,3.44,111.94,7.26,31.19,3.2,62.35,7.1,92.18,17.71,5.3,1.88,10.42,3.91,14.72,7.56-1.08,3.67-4.18,4.33-6.78,5.66-33.72,17.35-69.81,28.06-106.16,38.08-14.05,3.87-28.21,7-42.65,8.95-24.78,3.36-48.21-2.59-71.48-10.02-40.46-12.93-80.47-27.41-122.25-35.85-12.49-2.52-25.06-4.08-37.82-4.05-2.47,0-5.24,1.21-8-1.76,1.93-3.91,5.82-6.02,9.18-8.63,77.24-60.1,163.57-102.83,255.56-135.21,83.97-29.55,169.4-53.87,255.89-74.61,34.14-8.18,68.52-15.29,103.2-20.82,2.54-.4,5.16-1.11,8.47.63Zm-145.34,85.37c-5.45-2.79-8.52-1.13-11.67-.19-41.16,12.25-83.09,21.52-124.73,31.88-75.67,18.83-151.38,37.49-224.94,63.71-15.22,5.42-30.46,10.96-44.4,19.61,135.07-36.87,271.36-69.28,405.75-115Z"/>
    <path class="h"
          d="m159.96,476.19c78.28-4.13,446.41,66.14,492.9,99.59.35,4.71-3.32,6.02-6.6,7.8-66.55,36.01-135.53,65.83-209.55,83.02-28.29,6.57-56.43,5.67-84.44-.87-31.96-7.46-63.54-16.38-94.44-27.49-5.07-1.82-10.64-3.04-16.48-8.87,123.76-20.49,246.36-37.18,369.08-53.07.44-2.88-1.65-2.18-2.74-2.46-1.06-.27-2.23-.1-3.36-.12-47.95-.76-95.81,1.73-143.69,3.71-36.29,1.5-72.65,2.57-108.95.61-24.94-1.35-48.08-10.36-70.65-20.38-40.57-18.01-77.58-41.86-111.94-69.87-2.6-2.12-4.96-4.54-7.38-6.88-1.03-1-2.28-1.96-1.76-4.72Z"/>
    <path class="h"
          d="m719.82,537.77c-16.48-.43-29.78,5.98-44.26,6.52,24.66-33,104.55-73.33,132.55-67.01,5.33,5.54,3.26,11.78.68,17.58-4.28,9.65-11.62,16.64-21.47,20.35-12.13,4.58-20.2,13.2-27.68,23.45-33.22,45.54-70.92,86.95-113.6,123.98-42.43,36.81-84.4,74.16-125.71,112.26-38.54,35.55-77.56,70.6-116.68,105.53-43.02,38.4-86.39,76.41-129.63,114.57-2.92,2.58-5.98,5.01-9.84,6.48,17.65-17.1,35.47-34.05,52.93-51.35,48.7-48.26,95.82-98.06,143.15-147.65,26.39-27.65,53.41-54.68,79.99-82.12,54.49-56.25,109.65-111.82,165.28-166.94,4.46-4.42,8.48-9.28,14.28-15.66Z"/>
    <path class="h"
          d="m827.62,515.83c12.5-12.55,24.67-25.45,37.56-37.59,51.46-48.45,107.81-90.14,171.05-122.11,5.98-3.03,12.2-5.68,18.5-7.97,4.54-1.65,9.4-2.81,14.44.15,4.91,6.55,5.6,13.93,3.29,22-5.65,19.69-16.73,34.7-35.64,43.65-25.31,11.97-50.43,24.34-75.65,36.49-40.01,19.28-80.17,38.23-118.76,60.32-4.39,2.51-9.09,4.46-13.65,6.67-.38-.54-.76-1.07-1.15-1.61Z"/>
    <path class="h"
          d="m825.63,364.23c-162.11-27.87-301.98,20.78-425.77,123.89-9.37-2.27-17.99-4.36-28.47-6.9,45.67-49.89,100.04-84.02,161.27-108,90.64-35.5,200.88-36.19,292.97-8.99Z"/>
    <path class="h"
          d="m72.22,957.32c129.59-72.6,261.55-140.58,397.6-200.43-10.1,10.39-22.89,16.63-35.47,22.81-93.91,46.11-188.01,91.84-282,137.79-26.8,13.1-53.43,26.54-80.14,39.83Z"/>
    <path class="h" d="m546.22,699.45c-39.22,24.25-79.97,44.69-126.67,57.2,12.82-9.21,113.58-54.89,126.67-57.2Z"/>
</svg>
