<?xml version="1.0" encoding="UTF-8"?>
<svg id="f" xmlns="http://www.w3.org/2000/svg" xmlns:xlink="http://www.w3.org/1999/xlink" viewBox="0 0 1400 1400">
    <defs>
        <style>
            .p{fill:url(#j);}.p,.q,.r,.s,.t,.u,.v,.w{stroke-width:0px;}.q{fill:url(#i);}.r{fill:url(#h);}.s{fill:url(#m);}.t{fill:url(#g);}.u{fill:url(#k);}.v{fill:url(#n);}.w{fill:url(#l);}
        </style>
        <linearGradient id="g" x1="910.25" y1="1004.74" x2="751.71" y2="730.15" gradientUnits="userSpaceOnUse">
            <stop offset="0" stop-color="#941800"/>
            <stop offset="1" stop-color="#ff3100"/>
        </linearGradient>
        <linearGradient id="h" x1="1123.12" y1="949.73" x2="1018.79" y2="769.03"
                        gradientTransform="translate(601.12 -561.06) rotate(34.11)" xlink:href="#g"/>
        <linearGradient id="i" x1="572.39" y1="818.35" x2="472.25" y2="644.91" xlink:href="#g"/>
        <linearGradient id="j" x1="953.28" y1="456.95" x2="927.47" y2="412.25" xlink:href="#g"/>
        <linearGradient id="k" x1="620.38" y1="477.2" x2="548.22" y2="352.21" gradientUnits="userSpaceOnUse">
            <stop offset="0" stop-color="#fff"/>
            <stop offset="1" stop-color="#002b35" stop-opacity=".5"/>
        </linearGradient>
        <linearGradient id="l" x1="269.18" y1="870.51" x2="255.13" y2="846.18" xlink:href="#g"/>
        <linearGradient id="m" x1="476.92" y1="734.32" x2="469.77" y2="721.95" xlink:href="#g"/>
        <linearGradient id="n" x1="451.77" y1="762.83" x2="283.65" y2="471.62"
                        gradientTransform="translate(-166.37 173.82) rotate(-20.71)" xlink:href="#g"/>
    </defs>
    <path class="t"
          d="m1169.53,652.74c-17.49,56.32-43.41,108.4-83.56,155.04,11.51-4.34,45.96-45.42,65.5-76.73,17.79-28.51,28.04-59.98,35.42-92.58-.34,20.82-3.99,40.9-9.78,60.91-15.88,54.9-44.86,102.42-79.74,146.92-46.23,58.99-100.43,108.86-165.77,146.1-51.85,29.55-107.48,48.52-166.37,57.39-52.92,7.98-105.77,6.43-158.56-3-36.86-6.58-73.02-15.43-107.96-28.83-9.84-3.77-18.29,1.53-27.43,1.88-4.37.17-8.68,2-13.39.88,8.04-4.4,17.64-1.97,26.55-7.01-37.47-17.92-73.45-36.6-98.8-72.2,12.08-1.61,21.86,2.57,31.81,4.21,48.51,8.02,97.1,11.78,146.37,9.14,78.31-4.18,153.87-20.73,226.93-48.47,52.9-20.08,103.71-44.57,149.15-79.03,36.61-27.77,69.12-59.59,96.82-96.29,1.88-2.49,3.16-5.7,7.99-7.67-7.86,12.55-15.9,23.14-24.36,33.34-37.59,45.33-81.56,83.03-131.86,114-44.36,27.31-89.75,52.22-137.88,72.13-44.9,18.58-91.34,32.41-138.29,44.55-29.47,7.62-59.18,14.28-88.7,21.86,9.78.56,19.24-1.77,28.61-3.74,73.75-15.52,146.82-33.68,217.32-60.77,34.52-13.26,68.23-28.44,100.84-46.01,23.05-12.41,46.37-24.35,68.16-38.92,34.62-23.16,67.13-48.91,95.62-79.59-27.24,39.22-59.92,73.56-97.08,106.05,20.21-2.37,92.14-55.19,135.69-97.87,40.29-39.48,71.43-85.34,96.76-135.7Zm-152.97,227.87c-51.16,41.33-104.64,79.23-162.85,110.17,61.49-26.09,115.65-63.01,162.85-110.17Z"/>
    <path class="r"
          d="m1337.36,790.24c-2.33,6.08-7.84,5.61-12.33,6.71-64.81,15.88-130.74,20.65-197.23,19.53-21.68-.37-43.34-1.5-65.02-1.98-18.34-.41-35.38-5.05-51.21-14.3-20.02-11.69-40.24-23.06-60.11-35.01-33.04-19.88-65.86-40.12-98.78-60.21-2.87-1.75-5.74-3.5-9.42-3.74-1.38,1.92.71,2.54,1.52,3.07,31.27,20.7,59.95,44.76,88.61,68.79,24.03,20.14,47.64,40.84,66.39,66.36,3.33,4.53,6.43,9.08,7.94,14.52-2.95,2.44-5.89,1.24-8.79.88-37.65-4.55-73.53-15.91-109.25-28.01-13.8-4.68-27.28-10.03-40.33-16.5-22.4-11.11-38.46-29.18-53.56-48.39-26.25-33.39-51.25-67.82-81.11-98.24-8.92-9.09-18.46-17.43-29.04-24.56-2.05-1.38-5.01-1.94-5.63-5.95,3.79-2.15,8.2-1.72,12.44-2,97.65-6.45,193.1,6.59,287.42,31.38,86.09,22.63,170.46,50.39,253.71,81.74,32.86,12.37,65.31,25.77,97.12,40.64,2.33,1.09,4.9,1.97,6.66,5.27Zm-133.37-5.45c-2.95-5.36-6.42-5.72-9.56-6.71-40.95-12.94-80.86-28.78-121.15-43.56-73.21-26.85-146.36-53.85-221.97-73.4-15.64-4.04-31.36-8-47.76-8.66,132.51,45.23,263.52,94.83,400.43,132.33Z"/>
    <path class="q"
          d="m710.24,537.77c-16.48-.43-29.78,5.98-44.26,6.52,24.66-33,104.55-73.33,132.55-67.01,5.33,5.54,3.26,11.78.68,17.58-4.28,9.65-11.62,16.64-21.47,20.35-12.13,4.58-20.2,13.2-27.68,23.45-33.22,45.54-70.92,86.95-113.6,123.98-42.43,36.81-84.4,74.16-125.71,112.26-38.54,35.55-77.56,70.6-116.68,105.53-43.02,38.4-86.39,76.41-129.63,114.57-2.92,2.58-5.98,5.01-9.84,6.48,17.65-17.1,35.47-34.05,52.93-51.35,48.7-48.26,95.82-98.06,143.15-147.65,26.39-27.65,53.41-54.68,79.99-82.12,54.49-56.25,109.65-111.82,165.28-166.94,4.46-4.42,8.48-9.28,14.28-15.66Z"/>
    <path class="p"
          d="m818.04,515.83c12.5-12.55,24.67-25.45,37.56-37.59,51.46-48.45,107.81-90.14,171.05-122.11,5.98-3.03,12.2-5.68,18.5-7.97,4.54-1.65,9.4-2.81,14.44.15,4.91,6.55,5.6,13.93,3.29,22-5.65,19.69-16.73,34.7-35.64,43.65-25.31,11.97-50.43,24.34-75.65,36.49-40.01,19.28-80.17,38.23-118.76,60.32-4.39,2.51-9.09,4.46-13.65,6.67-.38-.54-.76-1.07-1.15-1.61Z"/>
    <path class="u"
          d="m816.05,364.23c-162.11-27.87-301.98,20.78-425.77,123.89-9.37-2.27-17.99-4.36-28.47-6.9,45.67-49.89,100.04-84.02,161.27-108,90.64-35.5,200.88-36.19,292.97-8.99Z"/>
    <path class="w"
          d="m62.64,957.32c129.59-72.6,261.55-140.58,397.6-200.43-10.1,10.39-22.89,16.63-35.47,22.81-93.91,46.11-188.01,91.84-282,137.79-26.8,13.1-53.43,26.54-80.14,39.83Z"/>
    <path class="s" d="m536.63,699.45c-39.22,24.25-79.97,44.69-126.67,57.2,12.82-9.21,113.58-54.89,126.67-57.2Z"/>
    <path class="v"
          d="m148.25,658.23c71.76-31.54,440.96-95.97,496.27-81.12,1.99,4.28-.98,6.81-3.42,9.63-49.52,57.21-103.49,109.5-166.66,151.75-24.14,16.14-50.78,25.26-79.29,29.05-32.53,4.33-65.23,7.14-98.06,7.68-5.39.09-11.03.92-18.55-2.47,108.52-62.92,217.3-121.89,326.48-180.14-.61-2.85-2.32-1.45-3.44-1.33-1.09.12-2.12.7-3.18,1.08-45.12,16.24-89.01,35.49-133.1,54.27-33.42,14.24-67.05,28.09-101.69,39.09-23.8,7.56-48.64,7.3-73.29,5.91-44.32-2.5-87.37-11.72-129.42-25.78-3.18-1.06-6.25-2.49-9.34-3.83-1.32-.57-2.83-1.03-3.31-3.79Z"/>
</svg>
